<?xml version="1.0" encoding="utf-8"?>
<!-- Generator: Adobe Illustrator 15.0.2, SVG Export Plug-In  -->
<!DOCTYPE svg PUBLIC "-//W3C//DTD SVG 1.1//EN" "http://www.w3.org/Graphics/SVG/1.1/DTD/svg11.dtd" [
	<!ENTITY ns_flows "http://ns.adobe.com/Flows/1.0/">
]>
<svg version="1.1"
	 xmlns="http://www.w3.org/2000/svg" xmlns:xlink="http://www.w3.org/1999/xlink"
	 x="-210px" y="-327px" width="460px" height="694px" viewBox="-20 -20 440 674" enable-background="new -20 -20 440 674" xml:space="preserve">
<linearGradient id="Back_2_" gradientUnits="userSpaceOnUse" x1="12" y1="327" x2="410" y2="327">
	<stop  offset="0" style="stop-color:#4D4D4D"/>
	<stop  offset="0.15" style="stop-color:#808080"/>
	<stop  offset="0.85" style="stop-color:#808080"/>
	<stop  offset="1" style="stop-color:#4D4D4D"/>
</linearGradient>
<path id="Back_1_" fill="url(#Back_2_)" class="outline" d="M410,642c0,6.627-5.373,12-12,12H24c-6.627,0-12-5.373-12-12V12c0-6.627,5.373-12,12-12
	h374c6.627,0,12,5.373,12,12V642z"/>
<linearGradient id="Front_2_" gradientUnits="userSpaceOnUse" x1="0" y1="327" x2="420" y2="327">
	<stop  offset="0" style="stop-color:#B3B3B3"/>
	<stop  offset="0.2" style="stop-color:#E6E6E6"/>
	<stop  offset="0.8" style="stop-color:#E6E6E6"/>
	<stop  offset="1" style="stop-color:#B3B3B3"/>
</linearGradient>
<path id="Front_1_" fill="url(#Front_2_)" class="outline" d="M420,595c0,6.627-5.373,12-12,12H12c-6.627,0-12-5.373-12-12V59
	c0-6.627,5.373-12,12-12h396c6.627,0,12,5.373,12,12V595z"/>
<path id="Inset_5_" fill="none" stroke="#808080" stroke-width="2" stroke-miterlimit="10" d="M212,292h118c6.627,0,12-5.373,12-12
	V123c0-6.627-5.373-12-12-12H86c-6.627,0-12,5.373-12,12v157c0,6.627,5.373,12,12,12h120v54c0,0,0.333,6-5,6s-17,0-17,0
	c-6.627,0-12,5.373-12,12v109c0,6.627,5.373,12,12,12h49c6.627,0,12-5.373,12-12V364c0-6.627-5.373-12-12-12c0,0-10,0-16,0
	c-5,0-5-6-5-6V292z"/>
<linearGradient id="Screen_3_" gradientUnits="userSpaceOnUse" x1="208.0005" y1="285" x2="208.0005" y2="120">
	<stop  offset="0.75" style="stop-color:#82996B"/>
	<stop  offset="1" style="stop-color:#ADCC8F"/>
</linearGradient>
<path id="Screen_2_" fill="url(#Screen_3_)" stroke="#333333" stroke-width="4" stroke-miterlimit="10" d="M333,273
	c0,6.627-5.373,12-12,12H95c-6.627,0-12-5.373-12-12V132c0-6.627,5.373-12,12-12h226c6.627,0,12,5.373,12,12V273z"/>
<g id="Inset_4_">
	<path fill="none" stroke="#808080" stroke-width="2" stroke-miterlimit="10" d="M155,415.667c0,8.25-5.596,11.625-12.74,7.5
		l-48.002-27.786c-7.145-4.125-7.082-10.875,0.063-15l47.909-27.786c7.145-4.125,12.771-0.75,12.771,7.5V415.667z"/>
</g>
<g id="Button_3_">
	<linearGradient id="SVGID_1_" gradientUnits="userSpaceOnUse" x1="146.1841" y1="416.1914" x2="120.1831" y2="371.1564">
		<stop  offset="0.75" style="stop-color:#B3B3B3"/>
		<stop  offset="1" style="stop-color:#E6E6E6"/>
	</linearGradient>
	<path fill="url(#SVGID_1_)" d="M150,407.801c0,8.25-5.846,11.625-12.99,7.5l-33.653-19.429c-7.145-4.125-7.145-10.875,0-15
		l33.654-19.431c7.145-4.125,12.99-0.75,12.99,7.5V407.801z"/>
	<path fill="none" stroke="#333333" stroke-width="2" stroke-miterlimit="10" d="M150,407.801c0,8.25-5.846,11.625-12.99,7.5
		l-33.653-19.429c-7.145-4.125-7.145-10.875,0-15l33.654-19.431c7.145-4.125,12.99-0.75,12.99,7.5V407.801z"/>
</g>
<g id="Inset_3_">
	<path fill="none" stroke="#808080" stroke-width="2" stroke-miterlimit="10" d="M261,415.667c0,8.25,6.042,11.625,13.187,7.5
		l48.226-27.786c7.145-4.125,7.193-10.875,0.049-15l-48.299-27.786c-7.145-4.125-13.162-0.75-13.162,7.5V415.667z"/>
</g>
<g id="Button_2_">
	
		<linearGradient id="SVGID_2_" gradientUnits="userSpaceOnUse" x1="-33.8823" y1="416.1836" x2="-59.8784" y2="371.157" gradientTransform="matrix(-1 0 0 1 236.8926 0)">
		<stop  offset="0.75" style="stop-color:#B3B3B3"/>
		<stop  offset="1" style="stop-color:#E6E6E6"/>
	</linearGradient>
	<path fill="url(#SVGID_2_)" d="M267,407.801c0,8.25,5.792,11.625,12.937,7.5l33.628-19.429c7.145-4.125,7.131-10.875-0.014-15
		l-33.607-19.431c-7.145-4.125-12.943-0.75-12.943,7.5V407.801z"/>
	<path fill="none" stroke="#333333" stroke-width="2" stroke-miterlimit="10" d="M267,407.801c0,8.25,5.792,11.625,12.937,7.5
		l33.628-19.429c7.145-4.125,7.131-10.875-0.014-15l-33.607-19.431c-7.145-4.125-12.943-0.75-12.943,7.5V407.801z"/>
</g>
<g id="Enter_Button_1_">
	<linearGradient id="SVGID_3_" gradientUnits="userSpaceOnUse" x1="209.0005" y1="418" x2="209.0005" y2="359">
		<stop  offset="0.75" style="stop-color:#F7931E"/>
		<stop  offset="1" style="stop-color:#FBB03B"/>
	</linearGradient>
	<path fill="url(#SVGID_3_)" d="M239,413c0,2.75-2.25,5-5,5h-50c-2.75,0-5-2.25-5-5v-49c0-2.75,2.25-5,5-5h50c2.75,0,5,2.25,5,5V413
		z"/>
	<path fill="none" stroke="#CC7A19" stroke-width="2" stroke-miterlimit="10" d="M239,413c0,2.75-2.25,5-5,5h-50c-2.75,0-5-2.25-5-5
		v-49c0-2.75,2.25-5,5-5h50c2.75,0,5,2.25,5,5V413z"/>
</g>
<g id="Escape_Button_1_">
	<linearGradient id="SVGID_4_" gradientUnits="userSpaceOnUse" x1="209.0005" y1="478" x2="209.0005" y2="440">
		<stop  offset="0.75" style="stop-color:#808080"/>
		<stop  offset="1" style="stop-color:#B3B3B3"/>
	</linearGradient>
	<path fill="url(#SVGID_4_)" d="M239,473c0,2.75-2.25,5-5,5h-50c-2.75,0-5-2.25-5-5v-28c0-2.75,2.25-5,5-5h50c2.75,0,5,2.25,5,5V473
		z"/>
	<path fill="none" stroke="#333333" stroke-width="2" stroke-miterlimit="10" d="M239,473c0,2.75-2.25,5-5,5h-50c-2.75,0-5-2.25-5-5
		v-28c0-2.75,2.25-5,5-5h50c2.75,0,5,2.25,5,5V473z"/>
</g>
<polygon fill="#808080" points="53,590 53,568 75,568 75,590 69,590 69,574 59,574 59,590 "/>
<polygon fill="#808080" points="86,568 94,568 99.125,573 104,568 113,568 101.875,579 112.375,590 104.125,590 99.406,584.391 
	93.781,590 86,590 96.25,579 "/>
<polygon fill="#808080" points="122,568 122,574 130,574 130,590 137,590 137,574 145,574 145,568 "/>
</svg>
